<?xml version="1.0" encoding="utf-8"?>
<!-- Generator: Adobe Illustrator 14.0.0, SVG Export Plug-In . SVG Version: 6.00 Build 43363)  -->
<!DOCTYPE svg PUBLIC "-//W3C//DTD SVG 1.1//EN" "http://www.w3.org/Graphics/SVG/1.1/DTD/svg11.dtd">
<svg version="1.1" id="Layer_1" xmlns="http://www.w3.org/2000/svg" xmlns:xlink="http://www.w3.org/1999/xlink" x="0px" y="0px"
	 width="66.504px" height="98.172px" viewBox="0 0 66.504 98.172" enable-background="new 0 0 66.504 98.172" xml:space="preserve">
<g>
	<path fill="none" stroke="#070707" stroke-width="3" stroke-miterlimit="10" d="M35.144,53.868l3.011,3.01
		c2.76,2.759,7.232,2.759,9.99,0l2.499-2.498l-12-12"/>
	<path fill="none" stroke="#070707" stroke-width="3" stroke-miterlimit="10" d="M46.999,50.553c3.901,0,7.064-3.162,7.064-7.063
		v-3.534"/>
	<path fill="none" stroke="#070707" stroke-width="3" stroke-miterlimit="10" d="M10.971,41.28l-6.966,6.784
		c-1.201,2.081-0.377,3.538,0.255,7.374l4.572,28.869"/>
	<g>
		<path fill="none" stroke="#070707" stroke-width="3" stroke-miterlimit="10" d="M25.025,41.19H4.762
			c-1.795,0-3.262-1.467-3.262-3.263V4.764C1.5,2.967,2.967,1.5,4.762,1.5h56.98c1.795,0,3.262,1.467,3.262,3.264v33.164
			c0,1.796-1.467,3.263-3.262,3.263H38.692"/>
		<line fill="none" stroke="#070707" stroke-width="3" x1="6.449" y1="23.632" x2="17.842" y2="23.632"/>
		<line fill="none" stroke="#070707" stroke-width="3" x1="6.449" y1="34.824" x2="18.645" y2="34.824"/>
		<line fill="none" stroke="#070707" stroke-width="3" x1="6.449" y1="29.651" x2="25.756" y2="29.651"/>
		<line fill="none" stroke="#070707" stroke-width="3" x1="20.715" y1="23.632" x2="32.107" y2="23.632"/>
		<line fill="none" stroke="#070707" stroke-width="3" x1="34.98" y1="23.632" x2="46.374" y2="23.632"/>
		<line fill="none" stroke="#070707" stroke-width="3" x1="49.247" y1="23.632" x2="60.639" y2="23.632"/>
		<line fill="none" stroke="#070707" stroke-width="3" stroke-miterlimit="10" x1="1.927" y1="9.71" x2="64.594" y2="9.71"/>
		<line fill="none" stroke="#070707" stroke-width="3" stroke-miterlimit="10" x1="64.594" y1="16.71" x2="1.927" y2="16.71"/>
	</g>
	<path fill="none" stroke="#070707" stroke-width="3" stroke-miterlimit="10" d="M30.88,84.344c0.676-1.365,1.281-2.896,1.802-4.638
		c2.439-8.153,2.568-14.95,0.621-20.392l6.59-22.02c0.775-2.598-0.699-5.338-3.299-6.115l-1.883-0.563
		c-2.601-0.777-5.339,0.699-6.117,3.299L17.2,61.532"/>
	<g>
		<polyline fill="none" stroke="#070707" points="3.261,98.172 3.261,84.366 41.883,84.366 41.883,98.172 		"/>
		<polyline fill="none" stroke="#070707" stroke-width="3" stroke-miterlimit="10" points="3.261,98.172 3.261,84.366 
			41.883,84.366 41.883,98.172 		"/>
	</g>
</g>
</svg>
