<?xml version="1.0" encoding="utf-8"?>
<!-- Generator: Adobe Illustrator 14.0.0, SVG Export Plug-In . SVG Version: 6.00 Build 43363)  -->
<!DOCTYPE svg PUBLIC "-//W3C//DTD SVG 1.1//EN" "http://www.w3.org/Graphics/SVG/1.1/DTD/svg11.dtd">
<svg version="1.1" id="Layer_1" xmlns="http://www.w3.org/2000/svg" xmlns:xlink="http://www.w3.org/1999/xlink" x="0px" y="0px"
	 width="98.296px" height="98.301px" viewBox="0 0 98.296 98.301" enable-background="new 0 0 98.296 98.301" xml:space="preserve">
<g>
	<path fill="none" stroke="#FFFFFF" stroke-width="3" stroke-miterlimit="10" d="M96.793,55.14l0.003-13.019l-7.767-1.664
		c-0.392-1.598-0.877-3.157-1.451-4.678l5.832-5.267l-6.514-11.276l-8.045,2.6c-1.026-1.083-2.1-2.119-3.233-3.088l2.54-7.868
		L66.885,4.369l-5.731,6.346c-1.396-0.437-2.824-0.805-4.276-1.099L55.136,1.5H42.117l-1.739,8.116
		c-1.538,0.309-3.044,0.714-4.521,1.19L30.51,4.891L19.234,11.4l2.385,7.369c-1.322,1.128-2.557,2.352-3.729,3.632l-7.012-2.264
		L4.365,31.409l5.195,4.693c-0.679,1.846-1.264,3.731-1.678,5.688L1.5,43.156V56.18l6.107,1.31c0.374,2.19,0.91,4.32,1.611,6.382
		l-4.331,3.912l6.507,11.274l5.416-1.747c1.519,1.795,3.185,3.462,4.982,4.979l-1.656,5.128l11.271,6.515l3.71-4.107
		c2.225,0.765,4.534,1.332,6.911,1.71l1.127,5.265l13.02,0.002l1.205-5.63c2.267-0.487,4.453-1.171,6.565-2.008l3.841,4.248
		L79.06,86.9l-1.969-6.088c1.528-1.435,2.947-2.967,4.245-4.612l6.08,1.965l6.516-11.277l-5.322-4.809
		c0.514-1.766,0.891-3.584,1.17-5.438L96.793,55.14z"/>
	<g>
		<circle fill="none" cx="49.147" cy="49.15" r="29.668"/>
		<g>
			
				<circle fill="none" stroke="#FFFFFF" stroke-width="3" stroke-linecap="round" stroke-linejoin="round" cx="49.147" cy="49.15" r="29.971"/>
			<path fill="none" stroke="#FFFFFF" stroke-width="3" stroke-linecap="round" stroke-linejoin="round" d="M66.478,49.15
				c0,16.55-7.762,29.971-17.33,29.971c-9.573,0-17.338-13.421-17.338-29.971c0-16.552,7.765-29.971,17.338-29.971
				C58.716,19.18,66.478,32.599,66.478,49.15z"/>
			<path fill="none" stroke="#FFFFFF" stroke-width="3" stroke-linecap="round" stroke-linejoin="round" d="M49.147,79.121
				c16.55,0,29.971-13.421,29.971-29.971c0-16.552-13.421-29.971-29.971-29.971V79.121z"/>
			<path fill="none" stroke="#FFFFFF" stroke-width="3" stroke-linecap="round" stroke-linejoin="round" d="M19.177,49.15
				c0,3.724,0.71,7.274,1.948,10.563h56.041c1.242-3.289,1.952-6.84,1.952-10.563c0-3.725-0.71-7.276-1.952-10.566H21.128
				C19.887,41.874,19.177,45.426,19.177,49.15z"/>
		</g>
	</g>
</g>
</svg>
