<?xml version="1.0" encoding="utf-8"?>
<!-- Generator: Adobe Illustrator 14.0.0, SVG Export Plug-In . SVG Version: 6.00 Build 43363)  -->
<!DOCTYPE svg PUBLIC "-//W3C//DTD SVG 1.1//EN" "http://www.w3.org/Graphics/SVG/1.1/DTD/svg11.dtd">
<svg version="1.1" id="Layer_1" xmlns="http://www.w3.org/2000/svg" xmlns:xlink="http://www.w3.org/1999/xlink" x="0px" y="0px"
	 width="103.975px" height="99.236px" viewBox="0 0 103.975 99.236" enable-background="new 0 0 103.975 99.236"
	 xml:space="preserve">
<g>
	<line fill="none" stroke="#0E1131" stroke-width="3" stroke-miterlimit="10" x1="58.941" y1="23.332" x2="58.941" y2="0"/>
	<g>
		<polyline fill="none" stroke="#0E1131" stroke-width="3" stroke-miterlimit="10" points="71.891,4.11 84.396,4.11 81.877,9.783 
			84.396,15.458 71.891,15.458 		"/>
		<polygon fill="none" stroke="#0E1131" stroke-width="3" stroke-miterlimit="10" points="58.102,14.17 58.102,8.496 58.102,2.82 
			72.514,2.82 72.514,8.496 72.514,14.17 		"/>
	</g>
	<polyline fill="none" stroke="#0E1131" stroke-width="3" stroke-miterlimit="10" points="37.57,59.234 58.979,19.808 
		80.214,58.774 101.449,97.736 58.979,97.736 	"/>
	<polyline fill="none" stroke="#0E1131" stroke-width="3" stroke-miterlimit="10" points="40.82,97.736 29.745,97.736 2.476,97.736 
		16.109,71.636 29.745,45.533 43.379,71.636 49.672,83.683 	"/>
	<polygon fill="none" stroke="#0E1131" stroke-width="3" stroke-miterlimit="10" points="62.611,64.049 73.479,80.894 
		84.346,97.736 62.611,97.736 40.874,97.736 51.742,80.894 	"/>
	<path fill="none" stroke="#0E1131" stroke-width="3" stroke-miterlimit="10" d="M74.02,47.407l-15.04-27.6L44.998,45.462
		c3.691-1.787,7.275-3.63,7.275-3.63l5.5,7.5l5.5-7L74.02,47.407z"/>
</g>
</svg>
