<?xml version="1.0" encoding="utf-8"?>
<!-- Generator: Adobe Illustrator 14.0.0, SVG Export Plug-In . SVG Version: 6.00 Build 43363)  -->
<!DOCTYPE svg PUBLIC "-//W3C//DTD SVG 1.1//EN" "http://www.w3.org/Graphics/SVG/1.1/DTD/svg11.dtd">
<svg version="1.1" id="Layer_1" xmlns="http://www.w3.org/2000/svg" xmlns:xlink="http://www.w3.org/1999/xlink" x="0px" y="0px"
	 width="101.896px" height="99.99px" viewBox="0 0 101.896 99.99" enable-background="new 0 0 101.896 99.99" xml:space="preserve">
<g>
	<path fill="none" stroke="#000333" stroke-width="3" d="M38.602,34.012c0.242,4.202,0.163,3.794-0.318,8.609
		c-0.664,6.661-1.977,12.795-3.693,17.899c4.428,1.528,8.658,5.875,10.909,11.84c1.005,2.66,1.47,5.328,1.505,7.845H50.2v-0.157"/>
	<path fill="none" stroke="#000333" stroke-width="3" d="M51.693,80.048v0.157h3.193c0.036-2.517,0.501-5.185,1.505-7.845
		c2.253-5.965,6.481-10.312,10.915-11.84c-1.721-5.106-3.035-11.243-3.699-17.899c-0.479-4.815-0.558-4.407-0.318-8.609"/>
	<polyline fill="none" stroke="#000333" stroke-width="3" points="38.173,0 38.173,26.722 63.724,26.722 63.724,0 	"/>
	<rect x="37.151" y="26.246" fill="none" stroke="#000333" stroke-width="3" width="27.594" height="7.971"/>
	<path fill="none" stroke="#000333" stroke-width="3" d="M95.564,53.862c0,24.643-19.976,40.619-44.618,40.619
		c-24.639,0-44.615-15.978-44.615-40.619"/>
	<line fill="none" stroke="#000333" stroke-width="3" x1="9.785" y1="94.172" x2="92.11" y2="94.172"/>
	<g>
		<rect x="1.5" y="45.546" fill="none" stroke="#000333" stroke-width="3" width="8.637" height="8.637"/>
		<rect x="91.76" y="45.546" fill="none" stroke="#000333" stroke-width="3" width="8.636" height="8.637"/>
	</g>
	<rect x="46.63" y="89.854" fill="#FFFFFF" stroke="#000333" stroke-width="3" width="8.638" height="8.637"/>
	<g>
		<rect x="1.907" y="89.854" fill="#FFFFFF" stroke="#000333" stroke-width="3" width="8.636" height="8.637"/>
		<rect x="91.354" y="89.854" fill="#FFFFFF" stroke="#000333" stroke-width="3" width="8.635" height="8.637"/>
	</g>
	<line fill="none" stroke="#000333" stroke-width="3" x1="50.948" y1="80.254" x2="50.948" y2="54.754"/>
	<circle fill="none" stroke="#000333" stroke-width="3" cx="50.948" cy="51.838" r="2.75"/>
</g>
<g>
	<g>
		<path fill="#FFFFFF" d="M130.637,42.379c0.775,0,2.035-1.18,0.729-1.18C130.589,41.2,129.329,42.379,130.637,42.379
			L130.637,42.379z"/>
	</g>
</g>
</svg>
