<?xml version="1.0" encoding="utf-8"?>
<!-- Generator: Adobe Illustrator 14.0.0, SVG Export Plug-In . SVG Version: 6.00 Build 43363)  -->
<!DOCTYPE svg PUBLIC "-//W3C//DTD SVG 1.1//EN" "http://www.w3.org/Graphics/SVG/1.1/DTD/svg11.dtd">
<svg version="1.1" id="Layer_1" xmlns="http://www.w3.org/2000/svg" xmlns:xlink="http://www.w3.org/1999/xlink" x="0px" y="0px"
	 width="99.396px" height="99.891px" viewBox="0 0 99.396 99.891" enable-background="new 0 0 99.396 99.891" xml:space="preserve">
<g>
	<path fill="none" stroke="#000333" stroke-width="3" stroke-linejoin="round" d="M50.516,94.938c0,1.692-1.371,3.063-3.063,3.063
		H4.563C2.872,98,1.5,96.63,1.5,94.938V4.564C1.5,2.873,2.872,1.5,4.563,1.5h42.89c1.691,0,3.063,1.373,3.063,3.063v33.369"/>
	<polyline fill="none" stroke="#000333" stroke-width="3" points="40.051,84.215 6.965,84.215 6.965,14.521 45.051,14.521 
		45.051,48.434 	"/>
	<g>
		<line fill="none" stroke="#000333" stroke-width="3" stroke-linejoin="round" x1="17.82" y1="8.345" x2="34.195" y2="8.345"/>
	</g>
	<line fill="none" stroke="#000333" stroke-width="3" stroke-linejoin="round" x1="24.508" y1="90.011" x2="27.508" y2="90.011"/>
	<circle fill="none" stroke="#000333" stroke-width="3" stroke-linejoin="round" cx="26.008" cy="41.275" r="10.917"/>
	<g>
		<line fill="none" stroke="#000333" stroke-width="3" x1="26.008" y1="35.978" x2="26.008" y2="46.574"/>
		<line fill="none" stroke="#000333" stroke-width="3" x1="31.306" y1="41.275" x2="20.71" y2="41.275"/>
	</g>
	<g>
		<path fill="none" stroke="#000333" stroke-width="3" stroke-miterlimit="10" d="M97.895,70.466l0.002-8.729l-5.178-1.107
			c-0.266-1.078-0.594-2.135-0.98-3.161l3.886-3.509l-4.362-7.559l-5.374,1.734c-0.69-0.729-1.421-1.422-2.186-2.072l1.7-5.266
			l-7.557-4.366l-3.842,4.253c-0.936-0.295-1.894-0.541-2.867-0.735l-1.166-5.438h-8.727l-1.166,5.438
			c-1.035,0.205-2.048,0.476-3.039,0.795l-3.577-3.961l-7.557,4.364l1.592,4.928c-0.891,0.762-1.736,1.57-2.525,2.437l-4.669-1.508
			l-4.362,7.558l3.453,3.12c-0.457,1.241-0.824,2.523-1.104,3.84l-4.272,0.914l-0.001,8.729l4.07,0.872
			c0.25,1.476,0.616,2.911,1.091,4.298l-2.891,2.609l4.363,7.558l3.621-1.169c1.018,1.207,2.138,2.325,3.345,3.343l-1.106,3.43
			l7.557,4.363l2.471-2.733c1.498,0.515,3.054,0.909,4.656,1.164l0.748,3.492h8.727l0.808-3.765c1.521-0.326,2.996-0.776,4.415-1.34
			l2.559,2.833l7.558-4.362L84.696,87.7c1.027-0.965,1.982-2.005,2.854-3.112l4.059,1.312l4.365-7.558l-3.553-3.21
			c0.347-1.19,0.619-2.413,0.806-3.664L97.895,70.466z M80.268,67.325c0,8.096-6.563,14.657-14.66,14.657
			c-8.096,0-14.66-6.563-14.66-14.657c0-8.1,6.564-14.662,14.66-14.662C73.705,52.663,80.268,59.227,80.268,67.325z"/>
	</g>
</g>
</svg>
