<?xml version="1.0" encoding="utf-8"?>
<!-- Generator: Adobe Illustrator 14.0.0, SVG Export Plug-In . SVG Version: 6.00 Build 43363)  -->
<!DOCTYPE svg PUBLIC "-//W3C//DTD SVG 1.1//EN" "http://www.w3.org/Graphics/SVG/1.1/DTD/svg11.dtd">
<svg version="1.1" id="Layer_1" xmlns="http://www.w3.org/2000/svg" xmlns:xlink="http://www.w3.org/1999/xlink" x="0px" y="0px"
	 width="96.318px" height="100.884px" viewBox="0 0 96.318 100.884" enable-background="new 0 0 96.318 100.884"
	 xml:space="preserve">
<g>
	<g>
		<path fill="none" stroke="#FFFFFF" stroke-width="3" stroke-miterlimit="10" d="M47.313,1.5L47.313,1.5
			c-4.783,0-8.66,3.877-8.66,8.661v32.833"/>
	</g>
	<path fill="none" stroke="#FFFFFF" stroke-width="3" stroke-miterlimit="10" d="M29.625,32.867L29.625,32.867
		c2.443,0,4.424,1.982,4.424,4.425v14.536"/>
	<path fill="none" stroke="#FFFFFF" stroke-width="3" stroke-miterlimit="10" d="M38.66,26.396v27c0,1.271-1.031,2.307-2.305,2.307
		l0,0c-1.273,0-2.307-1.035-2.307-2.307v-6.104"/>
	<g>
		<path fill="none" stroke="#FFFFFF" stroke-width="3" stroke-miterlimit="10" d="M29.719,32.867L29.719,32.867
			c-2.445,0-4.428,1.982-4.428,4.425v3.105"/>
	</g>
	<path fill="none" stroke="#FFFFFF" stroke-width="3" stroke-miterlimit="10" d="M19.393,40.244c0-1.101,2.695-2.04,2.813-3.109
		c0.123-1.091-2.297-2.603-2.057-3.652c0.242-1.066,3.078-1.384,3.436-2.404c0.361-1.031-1.66-3.047-1.188-4.021
		c0.475-0.982,3.307-0.656,3.885-1.572c0.582-0.923-0.938-3.338-0.262-4.186c0.68-0.852,3.371,0.097,4.141-0.672
		c0.768-0.769-0.18-3.46,0.67-4.137c0.85-0.68,3.264,0.84,4.186,0.26c0.916-0.578,0.592-3.412,1.572-3.887
		c0.975-0.469,2.99,1.552,4.023,1.188c1.018-0.356,1.334-3.193,2.402-3.436c1.051-0.239,2.561,2.18,3.652,2.059
		c1.068-0.12,2.008-2.814,3.109-2.814c1.1,0,2.039,2.694,3.107,2.814c1.09,0.121,2.604-2.298,3.654-2.059
		c1.066,0.242,1.383,3.079,2.402,3.436c1.031,0.363,3.047-1.657,4.021-1.186c0.982,0.472,0.656,3.307,1.574,3.885
		c0.922,0.579,3.336-0.939,4.186-0.261c0.85,0.677-0.1,3.369,0.67,4.138c0.768,0.769,3.461-0.179,4.139,0.671
		c0.678,0.848-0.842,3.263-0.262,4.186c0.576,0.917,3.412,0.591,3.887,1.573c0.469,0.976-1.551,2.988-1.189,4.021
		c0.357,1.02,3.193,1.337,3.436,2.403c0.24,1.052-2.18,2.563-2.059,3.652c0.119,1.069,2.814,2.009,2.814,3.109v15.499"/>
	<path fill="none" stroke="#FFFFFF" stroke-width="3" stroke-miterlimit="10" d="M65.76,95.667l4.529-9.187
		c0.965-1.957,2.545-5.16,3.51-7.119l2.857-5.794V58.556h-0.998v-6.505h0.998h6.854h0.996v6.505H83.51v15.013l2.855,5.793
		c0.967,1.959,2.547,5.162,3.512,7.119l4.529,9.187c0.965,1.955,0.174,3.558-1.756,3.558h-9.057c-1.932,0-5.092,0-7.023,0h-9.055
		C65.584,99.225,64.795,97.622,65.76,95.667z"/>
	<g>
		<line fill="none" stroke="#FFFFFF" stroke-width="2" stroke-miterlimit="10" x1="81.252" y1="77.324" x2="78.822" y2="77.324"/>
		<line fill="none" stroke="#FFFFFF" stroke-width="2" stroke-miterlimit="10" x1="81.252" y1="80.908" x2="78.822" y2="80.908"/>
		<line fill="none" stroke="#FFFFFF" stroke-width="2" stroke-miterlimit="10" x1="81.252" y1="84.492" x2="78.822" y2="84.492"/>
		<line fill="none" stroke="#FFFFFF" stroke-width="2" stroke-miterlimit="10" x1="81.252" y1="88.076" x2="78.822" y2="88.076"/>
		<line fill="none" stroke="#FFFFFF" stroke-width="2" stroke-miterlimit="10" x1="81.252" y1="91.659" x2="78.822" y2="91.659"/>
		<line fill="none" stroke="#FFFFFF" stroke-width="2" stroke-miterlimit="10" x1="81.252" y1="95.244" x2="78.822" y2="95.244"/>
	</g>
	<g>
		<path fill="none" stroke="#FFFFFF" stroke-width="3" stroke-miterlimit="10" d="M27.764,56.828V45.841h1.396v-5.558h-1.396h-9.588
			h-1.396v5.558h1.396v10.987C8.627,59.009,1.5,67.546,1.5,77.755c0,11.859,9.611,21.47,21.469,21.47s21.473-9.61,21.473-21.47
			C44.441,67.546,37.311,59.009,27.764,56.828z"/>
	</g>
	<path fill="none" stroke="#FFFFFF" stroke-width="3" stroke-miterlimit="10" d="M27.459,63.181c0,1.038-0.84,1.877-1.875,1.877
		c-1.039,0-1.877-0.839-1.877-1.877c0-1.036,0.838-1.877,1.877-1.877C26.619,61.304,27.459,62.145,27.459,63.181z"/>
	<circle fill="none" stroke="#FFFFFF" stroke-width="3" stroke-miterlimit="10" cx="19.419" cy="73.182" r="3.241"/>
	<path fill="none" stroke="#FFFFFF" stroke-width="3" stroke-miterlimit="10" d="M47.129,1.5L47.129,1.5
		c4.781,0,8.66,3.877,8.66,8.661V72.48"/>
	<path fill="none" stroke="#FFFFFF" stroke-width="3" stroke-miterlimit="10" d="M51.049,67.748v26.471
		c0,2.852,2.314,5.165,5.166,5.165c2.854,0,5.166-2.313,5.166-5.165V67.748H51.049z"/>
	<path fill="none" stroke="#FFFFFF" stroke-width="3" stroke-miterlimit="10" d="M51.049,77.748v16.471
		c0,2.852,2.314,5.165,5.166,5.165c2.854,0,5.166-2.313,5.166-5.165V77.748H51.049z"/>
	<path fill="none" stroke="#FFFFFF" stroke-width="3" stroke-miterlimit="10" d="M51.049,67.748v26.471
		c0,2.852,2.314,5.165,5.166,5.165c2.854,0,5.166-2.313,5.166-5.165V67.748H51.049z"/>
	<path fill="none" stroke="#FFFFFF" stroke-width="3" stroke-miterlimit="10" d="M1.988,82.285
		c2.08,9.681,10.68,16.939,20.98,16.939c10.303,0,18.902-7.259,20.984-16.939H1.988z"/>
	<line fill="none" stroke="#FFFFFF" stroke-width="3" stroke-miterlimit="10" x1="71.291" y1="84.285" x2="89.457" y2="84.285"/>
</g>
</svg>
