<?xml version="1.0" encoding="utf-8"?>
<!-- Generator: Adobe Illustrator 14.0.0, SVG Export Plug-In . SVG Version: 6.00 Build 43363)  -->
<!DOCTYPE svg PUBLIC "-//W3C//DTD SVG 1.1//EN" "http://www.w3.org/Graphics/SVG/1.1/DTD/svg11.dtd">
<svg version="1.1" id="Layer_1" xmlns="http://www.w3.org/2000/svg" xmlns:xlink="http://www.w3.org/1999/xlink" x="0px" y="0px"
	 width="99.599px" height="99.588px" viewBox="0 0 99.599 99.588" enable-background="new 0 0 99.599 99.588" xml:space="preserve">
<g>
	<g>
		<g>
			<path fill="none" stroke="#FFFFFF" stroke-width="3" stroke-linecap="round" stroke-linejoin="round" stroke-miterlimit="10" d="
				M2.674,10.137l5.018,5.021l7.463-7.465l-5.018-5.018C9.805,2.344,9.174,2.445,8.72,2.899l-5.82,5.82
				C2.443,9.178,2.342,9.806,2.674,10.137z"/>
			
				<polyline fill="none" stroke="#FFFFFF" stroke-width="3" stroke-linecap="round" stroke-linejoin="round" stroke-miterlimit="10" points="
				46.34,38.878 15.154,7.692 7.691,15.157 38.868,46.334 			"/>
			
				<polyline fill="none" stroke="#FFFFFF" stroke-width="3" stroke-linecap="round" stroke-linejoin="round" stroke-miterlimit="10" points="
				52.796,60.262 83.321,90.786 90.785,83.324 59.924,52.463 			"/>
		</g>
		<path fill="none" stroke="#FFFFFF" stroke-width="3" stroke-linecap="round" stroke-linejoin="round" stroke-miterlimit="10" d="
			M86.424,86.423c-1.329,1.329-2.395,2.783-3.191,4.265l13.41,5.952l-5.957-13.404C89.201,84.036,87.752,85.095,86.424,86.423z"/>
		<g>
			
				<rect x="9.156" y="9.917" transform="matrix(-0.7072 0.7071 -0.7071 -0.7072 34.9847 14.4331)" fill="none" stroke="#FFFFFF" stroke-width="3" stroke-linecap="round" stroke-linejoin="round" stroke-miterlimit="10" width="10.694" height="9.089"/>
		</g>
		<path fill="none" stroke="#FFFFFF" stroke-width="3" stroke-miterlimit="10" d="M94.688,92.263
			c-0.405,0.349-0.812,0.698-1.205,1.091c-0.435,0.437-0.838,0.893-1.211,1.354l4.369,1.932L94.688,92.263z"/>
	</g>
	<g>
		
			<rect x="-8.027" y="40.059" transform="matrix(0.7071 -0.7071 0.7071 0.7071 -20.5287 49.5597)" fill="none" stroke="#FFFFFF" stroke-width="3" stroke-miterlimit="10" width="115.174" height="19.003"/>
		<line fill="none" stroke="#FFFFFF" stroke-width="3" stroke-miterlimit="10" x1="8.637" y1="78.675" x2="13.93" y2="83.97"/>
		<line fill="none" stroke="#FFFFFF" stroke-width="3" stroke-miterlimit="10" x1="14.337" y1="72.974" x2="17.188" y2="75.824"/>
		<line fill="none" stroke="#FFFFFF" stroke-width="3" stroke-miterlimit="10" x1="20.039" y1="67.272" x2="25.332" y2="72.566"/>
		<line fill="none" stroke="#FFFFFF" stroke-width="3" stroke-miterlimit="10" x1="25.738" y1="61.573" x2="28.589" y2="64.423"/>
		<line fill="none" stroke="#FFFFFF" stroke-width="3" stroke-miterlimit="10" x1="31.439" y1="55.871" x2="36.734" y2="61.165"/>
		<line fill="none" stroke="#FFFFFF" stroke-width="3" stroke-miterlimit="10" x1="37.141" y1="50.171" x2="39.99" y2="53.021"/>
		<line fill="none" stroke="#FFFFFF" stroke-width="3" stroke-miterlimit="10" x1="42.841" y1="44.47" x2="48.135" y2="49.763"/>
		<line fill="none" stroke="#FFFFFF" stroke-width="3" stroke-miterlimit="10" x1="48.542" y1="38.77" x2="51.393" y2="41.619"/>
		<line fill="none" stroke="#FFFFFF" stroke-width="3" stroke-miterlimit="10" x1="54.243" y1="33.068" x2="59.537" y2="38.362"/>
		<line fill="none" stroke="#FFFFFF" stroke-width="3" stroke-miterlimit="10" x1="59.943" y1="27.367" x2="62.794" y2="30.218"/>
		<line fill="none" stroke="#FFFFFF" stroke-width="3" stroke-miterlimit="10" x1="65.645" y1="21.666" x2="70.938" y2="26.96"/>
		<line fill="none" stroke="#FFFFFF" stroke-width="3" stroke-miterlimit="10" x1="71.346" y1="15.966" x2="74.195" y2="18.815"/>
		<line fill="none" stroke="#FFFFFF" stroke-width="3" stroke-miterlimit="10" x1="77.047" y1="10.264" x2="82.34" y2="15.56"/>
	</g>
</g>
</svg>
