<?xml version="1.0" encoding="utf-8"?>
<!-- Generator: Adobe Illustrator 14.0.0, SVG Export Plug-In . SVG Version: 6.00 Build 43363)  -->
<!DOCTYPE svg PUBLIC "-//W3C//DTD SVG 1.1//EN" "http://www.w3.org/Graphics/SVG/1.1/DTD/svg11.dtd">
<svg version="1.1" id="Layer_1" xmlns="http://www.w3.org/2000/svg" xmlns:xlink="http://www.w3.org/1999/xlink" x="0px" y="0px"
	 width="100.334px" height="81.332px" viewBox="0 0 100.334 81.332" enable-background="new 0 0 100.334 81.332"
	 xml:space="preserve">
<g>
	<path fill="none" stroke="#000333" stroke-width="3" stroke-linejoin="round" d="M11.306,14.5H4.5c-1.657,0-3,1.344-3,3V65v11.832
		c0,1.657,1.344,3,3,3h16.176h58.982h16.176c1.657,0,3-1.343,3-3V65V17.5c0-1.656-1.343-3-3-3H80.646l-2.813-10
		c-0.657-1.751-1.344-3-3-3H45.501c-1.656,0-2.491,1.332-3,3l-2.813,10H24.806"/>
	<g>
		<circle fill="none" stroke="#000333" stroke-width="3" stroke-linejoin="round" cx="60.167" cy="47.166" r="22.333"/>
		<circle fill="none" stroke="#000333" stroke-width="3" stroke-linejoin="round" cx="60.167" cy="47.166" r="16.333"/>
		<path fill="none" stroke="#000333" stroke-width="3" stroke-linejoin="round" d="M48.5,47.166c0-6.443,5.224-11.666,11.666-11.666
			"/>
	</g>
	<rect x="47.167" y="6.498" fill="none" stroke="#000333" stroke-width="3" stroke-linejoin="round" width="26" height="9.334"/>
	<polyline fill="none" stroke="#000333" stroke-width="3" points="84.206,15.165 84.206,9.832 94.427,9.832 94.427,15.165 	"/>
	<line fill="none" stroke="#000333" stroke-width="3" stroke-linejoin="round" x1="28.426" y1="22.499" x2="28.426" y2="69.165"/>
	<path fill="none" stroke="#000333" stroke-width="3" stroke-linejoin="round" d="M42.177,5.749l-3.5,12.833
		c-0.583,1.5-2.907,2.959-4.334,2.959H8.358c-1.426,0-2.583-1.158-2.583-2.584v-3.875"/>
	<ellipse fill="none" stroke="#000333" stroke-width="3" stroke-linejoin="round" cx="17.926" cy="14" rx="6.833" ry="3.832"/>
</g>
</svg>
