<?xml version="1.0" encoding="utf-8"?>
<!-- Generator: Adobe Illustrator 14.0.0, SVG Export Plug-In . SVG Version: 6.00 Build 43363)  -->
<!DOCTYPE svg PUBLIC "-//W3C//DTD SVG 1.1//EN" "http://www.w3.org/Graphics/SVG/1.1/DTD/svg11.dtd">
<svg version="1.1" id="Layer_1" xmlns="http://www.w3.org/2000/svg" xmlns:xlink="http://www.w3.org/1999/xlink" x="0px" y="0px"
	 width="101.641px" height="89.168px" viewBox="0 0 101.641 89.168" enable-background="new 0 0 101.641 89.168"
	 xml:space="preserve">
<g>
	<g>
		
			<rect x="2.119" y="34.167" fill="none" stroke="#000333" stroke-width="3" stroke-miterlimit="10" width="97.973" height="53.501"/>
		<g>
			
				<rect x="2.123" y="22.171" fill="none" stroke="#000333" stroke-width="3" stroke-linecap="round" stroke-linejoin="round" stroke-miterlimit="10" width="97.979" height="12.09"/>
			<g>
				
					<polygon fill="none" stroke="#000333" stroke-width="3" stroke-linecap="round" stroke-linejoin="round" stroke-miterlimit="10" points="
					16.445,22.171 2.574,22.171 19.045,34.261 32.918,34.261 				"/>
				
					<polygon fill="none" stroke="#000333" stroke-width="3" stroke-linecap="round" stroke-linejoin="round" stroke-miterlimit="10" points="
					44.607,22.171 30.736,22.171 47.207,34.261 61.08,34.261 				"/>
				
					<polygon fill="none" stroke="#000333" stroke-width="3" stroke-linecap="round" stroke-linejoin="round" stroke-miterlimit="10" points="
					72.773,22.171 58.895,22.171 75.369,34.261 89.244,34.261 				"/>
				
					<polygon fill="none" stroke="#000333" stroke-width="3" stroke-linecap="round" stroke-linejoin="round" stroke-miterlimit="10" points="
					100.102,31.744 100.102,22.171 87.061,22.171 				"/>
			</g>
		</g>
		<g>
			
				<rect x="1.831" y="5.517" transform="matrix(-0.9966 0.0825 -0.0825 -0.9966 102.4198 18.893)" fill="none" stroke="#000333" stroke-width="3" stroke-linecap="round" stroke-linejoin="round" stroke-miterlimit="10" width="97.978" height="12.09"/>
			<g>
				
					<polygon fill="none" stroke="#000333" stroke-width="3" stroke-linecap="round" stroke-linejoin="round" stroke-miterlimit="10" points="
					16.771,20.447 2.943,21.592 18.365,8.186 32.189,7.042 				"/>
				
					<polygon fill="none" stroke="#000333" stroke-width="3" stroke-linecap="round" stroke-linejoin="round" stroke-miterlimit="10" points="
					44.838,18.126 31.01,19.269 46.428,5.861 60.256,4.718 				"/>
				
					<polygon fill="none" stroke="#000333" stroke-width="3" stroke-linecap="round" stroke-linejoin="round" stroke-miterlimit="10" points="
					72.906,15.803 59.078,16.946 74.498,3.541 88.324,2.396 				"/>
				
					<polygon fill="none" stroke="#000333" stroke-width="3" stroke-linecap="round" stroke-linejoin="round" stroke-miterlimit="10" points="
					99.35,4.011 100.141,13.549 87.143,14.625 				"/>
			</g>
		</g>
	</g>
	<line fill="none" stroke="#000333" stroke-width="3" stroke-miterlimit="10" x1="11.455" y1="51.543" x2="89.955" y2="51.543"/>
	<line fill="none" stroke="#000333" stroke-width="3" stroke-miterlimit="10" x1="11.455" y1="60.043" x2="89.955" y2="60.043"/>
	<line fill="none" stroke="#000333" stroke-width="3" stroke-miterlimit="10" x1="11.455" y1="43.793" x2="66.205" y2="43.793"/>
	<line fill="none" stroke="#000333" stroke-width="3" stroke-miterlimit="10" x1="11.455" y1="76.293" x2="89.955" y2="76.293"/>
	<line fill="none" stroke="#000333" stroke-width="3" stroke-miterlimit="10" x1="50.705" y1="50.542" x2="50.705" y2="60.543"/>
	<line fill="none" stroke="#000333" stroke-width="3" stroke-miterlimit="10" x1="30.205" y1="61.293" x2="30.205" y2="76.294"/>
	<line fill="none" stroke="#000333" stroke-width="3" stroke-miterlimit="10" x1="68.955" y1="61.293" x2="68.955" y2="76.294"/>
</g>
</svg>
