<?xml version="1.0" encoding="utf-8"?>
<!-- Generator: Adobe Illustrator 14.0.0, SVG Export Plug-In . SVG Version: 6.00 Build 43363)  -->
<!DOCTYPE svg PUBLIC "-//W3C//DTD SVG 1.1//EN" "http://www.w3.org/Graphics/SVG/1.1/DTD/svg11.dtd">
<svg version="1.1" id="Layer_1" xmlns="http://www.w3.org/2000/svg" xmlns:xlink="http://www.w3.org/1999/xlink" x="0px" y="0px"
	 width="93.564px" height="108.339px" viewBox="0 0 93.564 108.339" enable-background="new 0 0 93.564 108.339"
	 xml:space="preserve">
<g>
	<g>
		
			<polyline fill="none" stroke="#0E1131" stroke-width="3" stroke-linecap="round" stroke-linejoin="round" stroke-miterlimit="10" points="
			82.632,86.047 46.76,106.757 10.888,86.047 10.888,68.404 		"/>
		
			<line fill="none" stroke="#0E1131" stroke-width="3" stroke-linecap="round" stroke-linejoin="round" stroke-miterlimit="10" x1="82.632" y1="86.047" x2="46.76" y2="106.757"/>
		
			<polyline fill="none" stroke="#0E1131" stroke-width="3" stroke-linecap="round" stroke-linejoin="round" stroke-miterlimit="10" points="
			10.91,44.634 1.501,27.478 19.481,16.947 		"/>
		
			<polyline fill="none" stroke="#0E1131" stroke-width="3" stroke-linecap="round" stroke-linejoin="round" stroke-miterlimit="10" points="
			82.653,44.63 92.065,27.474 74.12,16.965 		"/>
	</g>
	<g>
		<path fill="none" stroke="#0E1131" stroke-width="3" stroke-miterlimit="10" d="M11.687,45.314c0-2.31,1.318-4.488,3.438-5.69
			l2.048-1.158l-1.611-1.716c-1.322-1.405-2.051-3.233-2.051-5.148c0-3.479,2.367-6.483,5.756-7.306l2.469-0.6l-1.332-2.166
			c-0.646-1.051-0.989-2.253-0.989-3.47c0-3.416,2.665-6.329,6.069-6.632l1.441-0.13l0.222-1.432
			c0.732-4.77,4.921-8.367,9.741-8.367c5.443,0,9.873,4.429,9.873,9.872v55.22"/>
		<g>
			<path fill="none" stroke="#0E1131" stroke-width="3" stroke-linecap="round" stroke-linejoin="round" d="M26.075,11.609h6.251
				c3.546,0,6.425,2.876,6.425,6.425"/>
			<path fill="none" stroke="#0E1131" stroke-width="3" stroke-linecap="round" stroke-linejoin="round" d="M46.524,66.592v-55.22
				c0-5.323-4.313-9.638-9.637-9.638l0,0c-5.321,0-9.637,4.314-9.637,9.638"/>
			<path fill="none" stroke="#0E1131" stroke-width="3" stroke-linecap="round" stroke-linejoin="round" d="M26.075,24.482
				c-3.549,0-6.426-2.875-6.426-6.422l0,0c0-3.553,2.877-6.427,6.426-6.427h1.346"/>
			<path fill="none" stroke="#0E1131" stroke-width="3" stroke-linecap="round" stroke-linejoin="round" d="M20.919,38.896h0.117
				c-4.025,0-7.291-3.265-7.291-7.294l0,0c0-4.026,3.266-7.29,7.291-7.29h3.127"/>
			<path fill="none" stroke="#0E1131" stroke-width="3" stroke-linecap="round" stroke-linejoin="round" d="M11.921,45.314
				L11.921,45.314c0-3.411,3.063-6.329,6.474-6.329h3.165"/>
			<path fill="none" stroke="#0E1131" stroke-width="3" stroke-linecap="round" stroke-linejoin="round" d="M35.103,58.168
				c2.303,0,4.168-1.864,4.168-4.166V41.066c0-2.301-1.865-4.168-4.168-4.168"/>
			<path fill="none" stroke="#0E1131" stroke-width="3" stroke-linecap="round" stroke-linejoin="round" d="M35.234,69.978"/>
			<path fill="none" stroke="#0E1131" stroke-width="3" stroke-linecap="round" stroke-linejoin="round" d="M26.944,17.364H29.2
				c1.727,0,3.126,1.398,3.126,3.125v8.336c0,1.724-1.399,3.126-3.126,3.126h-8.508"/>
			<path fill="none" stroke="#0E1131" stroke-width="3" stroke-linecap="round" stroke-linejoin="round" d="M32.864,24.725h3.217
				c1.727,0,3.127,1.402,3.127,3.128"/>
			<path fill="none" stroke="#0E1131" stroke-width="3" stroke-linecap="round" stroke-linejoin="round" d="M39.272,41.499v1.041
				c0,1.729-1.399,3.128-3.127,3.128H20.692"/>
			<path fill="none" stroke="#0E1131" stroke-width="3" stroke-linecap="round" stroke-linejoin="round" d="M30.068,51.376
				c1.728,0,3.126,1.401,3.126,3.127v3.211"/>
			<path fill="none" stroke="#0E1131" stroke-width="3" stroke-linecap="round" stroke-linejoin="round" d="M27.29,39.047
				c1.727,0,3.127,1.399,3.127,3.127v3.21"/>
		</g>
		<path fill="none" stroke="#0E1131" stroke-width="3" stroke-miterlimit="10" d="M81.778,45.314c0-2.31-1.316-4.488-3.438-5.69
			l-2.047-1.158l1.612-1.716c1.321-1.405,2.051-3.233,2.051-5.148c0-3.479-2.366-6.483-5.757-7.306l-2.469-0.6l1.33-2.166
			c0.648-1.051,0.99-2.253,0.99-3.47c0-3.416-2.665-6.329-6.068-6.632l-1.441-0.13l-0.221-1.432C65.588,5.098,61.398,1.5,56.579,1.5
			c-5.443,0-9.872,4.429-9.872,9.872v55.22"/>
		<path fill="none" stroke="#0E1131" stroke-width="3" stroke-miterlimit="10" d="M77.657,53.828"/>
		<path fill="none" stroke="#0E1131" stroke-width="3" stroke-miterlimit="10" d="M79.177,58.127"/>
		<g>
			<path fill="none" stroke="#0E1131" stroke-width="3" stroke-linecap="round" stroke-linejoin="round" d="M67.391,11.721H61.14
				c-3.547,0-6.424,2.874-6.424,6.424"/>
			<path fill="none" stroke="#0E1131" stroke-width="3" stroke-linecap="round" stroke-linejoin="round" d="M46.94,66.592v-55.22
				c0-5.323,4.314-9.638,9.639-9.638l0,0c5.32,0,9.637,4.314,9.637,9.638"/>
			<path fill="none" stroke="#0E1131" stroke-width="3" stroke-linecap="round" stroke-linejoin="round" d="M67.391,24.482
				c3.548,0,6.427-2.875,6.427-6.422l0,0c0-3.553-2.879-6.427-6.427-6.427h-1.344"/>
			<path fill="none" stroke="#0E1131" stroke-width="3" stroke-linecap="round" stroke-linejoin="round" d="M72.549,38.896h-0.12
				c4.027,0,7.293-3.265,7.293-7.294l0,0c0-4.026-3.266-7.29-7.293-7.29h-3.125"/>
			<path fill="none" stroke="#0E1131" stroke-width="3" stroke-linecap="round" stroke-linejoin="round" d="M72.298,51.485"/>
			<path fill="none" stroke="#0E1131" stroke-width="3" stroke-linecap="round" stroke-linejoin="round" d="M61.358,64.77"/>
			<path fill="none" stroke="#0E1131" stroke-width="3" stroke-linecap="round" stroke-linejoin="round" d="M81.546,45.314
				L81.546,45.314c0-3.411-3.064-6.329-6.474-6.329h-3.165"/>
			<path fill="none" stroke="#0E1131" stroke-width="3" stroke-linecap="round" stroke-linejoin="round" d="M58.364,58.168
				c-2.303,0-4.17-1.864-4.17-4.166V41.066c0-2.301,1.867-4.168,4.17-4.168"/>
			<path fill="none" stroke="#0E1131" stroke-width="3" stroke-linecap="round" stroke-linejoin="round" d="M66.522,17.364h-2.256
				c-1.727,0-3.127,1.398-3.127,3.125v8.336c0,1.724,1.4,3.126,3.127,3.126h8.508"/>
			<path fill="none" stroke="#0E1131" stroke-width="3" stroke-linecap="round" stroke-linejoin="round" d="M60.603,24.725h-3.217
				c-1.727,0-3.127,1.402-3.127,3.128"/>
			<path fill="none" stroke="#0E1131" stroke-width="3" stroke-linecap="round" stroke-linejoin="round" d="M54.194,41.499v1.041
				c0,1.729,1.398,3.128,3.125,3.128h15.455"/>
			<path fill="none" stroke="#0E1131" stroke-width="3" stroke-linecap="round" stroke-linejoin="round" d="M63.398,51.376
				c-1.728,0-3.127,1.401-3.127,3.127v3.211"/>
			<path fill="none" stroke="#0E1131" stroke-width="3" stroke-linecap="round" stroke-linejoin="round" d="M66.177,39.047
				c-1.727,0-3.129,1.399-3.129,3.127v3.21"/>
		</g>
	</g>
	<g>
		<polyline fill="none" stroke="#0E1131" stroke-width="3" stroke-linejoin="round" stroke-miterlimit="10" points="82.628,86.131 
			46.759,106.839 10.886,86.131 		"/>
		<polyline fill="none" stroke="#0E1131" stroke-width="3" stroke-linejoin="round" stroke-miterlimit="10" points="82.628,67.738 
			82.628,86.131 46.759,106.839 46.759,65.715 82.628,44.711 		"/>
		<polygon fill="none" stroke="#0E1131" stroke-width="3" stroke-linejoin="round" stroke-miterlimit="10" points="46.759,65.715 
			82.628,44.711 92.042,62.164 56.17,82.874 		"/>
		<polygon fill="none" stroke="#0E1131" stroke-width="3" stroke-linejoin="round" stroke-miterlimit="10" points="46.81,65.754 
			10.939,44.748 1.524,62.202 37.395,82.913 		"/>
	</g>
</g>
</svg>
