<?xml version="1.0" encoding="utf-8"?>
<!-- Generator: Adobe Illustrator 14.0.0, SVG Export Plug-In . SVG Version: 6.00 Build 43363)  -->
<!DOCTYPE svg PUBLIC "-//W3C//DTD SVG 1.1//EN" "http://www.w3.org/Graphics/SVG/1.1/DTD/svg11.dtd">
<svg version="1.1" id="Layer_1" xmlns="http://www.w3.org/2000/svg" xmlns:xlink="http://www.w3.org/1999/xlink" x="0px" y="0px"
	 width="101.583px" height="62.628px" viewBox="0 0 101.583 62.628" enable-background="new 0 0 101.583 62.628"
	 xml:space="preserve">
<g>
	<polyline fill="none" stroke="#FFFFFF" stroke-width="3" points="23.121,29.253 16.632,29.253 13.344,26.693 1.5,29.253 
		1.5,34.381 13.342,36.939 16.631,34.226 23.12,34.226 	"/>
	<line fill="none" stroke="#FFFFFF" stroke-width="3" x1="37.908" y1="34.226" x2="52.327" y2="34.226"/>
	<line fill="none" stroke="#FFFFFF" stroke-width="3" x1="52.328" y1="29.253" x2="37.908" y2="29.253"/>
	<path fill="none" stroke="#FFFFFF" stroke-width="3" stroke-miterlimit="10" d="M77.638,25.88 M76.724,22.929l3.625-3.275
		L76.276,12.6l-5.016,1.619c-0.645-0.682-1.326-1.328-2.041-1.937l1.588-4.915l-7.055-4.074l-3.584,3.97
		c-0.875-0.275-1.768-0.505-2.678-0.688L56.403,1.5h-8.146L47.17,6.575c-0.967,0.193-1.912,0.443-2.838,0.741l-3.338-3.697
		l-7.055,4.074l1.486,4.6c-0.832,0.71-1.623,1.467-2.359,2.275l-4.357-1.406l-4.072,7.055l3.223,2.911
		c-0.426,1.158-0.77,2.355-1.029,3.583l-3.988,0.855l-0.002,8.146l3.801,0.814c0.232,1.378,0.576,2.718,1.018,4.015l-2.697,2.436
		l4.072,7.054l3.381-1.092c0.951,1.126,1.994,2.17,3.123,3.121l-1.035,3.2l7.053,4.073l2.307-2.553c1.4,0.48,2.852,0.85,4.348,1.087
		l0.697,3.26l8.147,0.001l0.752-3.515c1.422-0.304,2.797-0.726,4.121-1.25l2.389,2.646l7.055-4.072l-1.223-3.789
		c0.959-0.898,1.85-1.87,2.664-2.904l3.789,1.224l4.074-7.054l-2.016-1.821 M63.763,39.651c-2.447,3.711-6.653,6.161-11.434,6.161
		c-6.792,0-12.431-4.95-13.5-11.441c-0.12-0.729-0.183-1.479-0.183-2.242c0-1.072,0.123-2.116,0.355-3.117
		c1.411-6.058,6.843-10.569,13.327-10.569c4.461,0,8.424,2.135,10.922,5.438"/>
	<g>
		<g>
			<path fill="none" stroke="#FFFFFF" stroke-width="3" stroke-linecap="round" d="M67.437,23.194
				c-1.272,0.012-2.369,0.771-2.879,1.867c-0.96-1.168-2.594-1.961-3.941-1.964c-0.714,0.002-1.312,0.003-1.813,0.003
				c-1.756,0.001-2.341-0.001-2.343-0.003c-0.501,0.004-2.751,0.004-3.46,0.003c-1.759,0.003-1.551,1.435-1.562,3.212
				c0,3.668-0.001,7.341-0.001,11.005c0.016,1.78-0.198,3.216,1.563,3.212c0.71,0.003,2.958,0,3.459,0.003
				c1.755-0.003,2.342-0.003,2.342-0.003c0.504,0,1.103,0.004,1.814,0.003c1.347,0.009,2.979-0.786,3.939-1.954
				c0.476,1.205,1.645,2.055,3.001,2.043c11.313-0.078,15.748-0.107,27.063-0.185c1.753-0.003,3.989-1.352,4.581-3.124
				c1.202-3.653,1.177-7.606-0.077-11.241c-0.614-1.757-2.87-3.073-4.625-3.064C83.188,23.087,78.753,23.115,67.437,23.194z"/>
		</g>
		<g>
			<line fill="none" stroke="#FFFFFF" stroke-width="3" stroke-linecap="round" x1="70.393" y1="27.551" x2="93.734" y2="27.551"/>
			<line fill="none" stroke="#FFFFFF" stroke-width="3" stroke-linecap="round" x1="70.393" y1="31.814" x2="93.734" y2="31.814"/>
			<line fill="none" stroke="#FFFFFF" stroke-width="3" stroke-linecap="round" x1="70.392" y1="36.075" x2="93.733" y2="36.075"/>
		</g>
		<line fill="none" stroke="#FFFFFF" stroke-width="3" x1="64.716" y1="39.032" x2="64.716" y2="24.595"/>
	</g>
</g>
</svg>
